<?xml version='1.0' encoding='UTF-8'?>
<svg width="37mm" height="37mm" version="1.1" viewBox="0 0 37 37" xmlns="http://www.w3.org/2000/svg"><path d="M2,2H3V3H2zM3,2H4V3H3zM4,2H5V3H4zM5,2H6V3H5zM6,2H7V3H6zM7,2H8V3H7zM8,2H9V3H8zM11,2H12V3H11zM12,2H13V3H12zM13,2H14V3H13zM14,2H15V3H14zM15,2H16V3H15zM16,2H17V3H16zM19,2H20V3H19zM20,2H21V3H20zM26,2H27V3H26zM28,2H29V3H28zM29,2H30V3H29zM30,2H31V3H30zM31,2H32V3H31zM32,2H33V3H32zM33,2H34V3H33zM34,2H35V3H34zM2,3H3V4H2zM8,3H9V4H8zM10,3H11V4H10zM11,3H12V4H11zM13,3H14V4H13zM15,3H16V4H15zM16,3H17V4H16zM22,3H23V4H22zM28,3H29V4H28zM34,3H35V4H34zM2,4H3V5H2zM4,4H5V5H4zM5,4H6V5H5zM6,4H7V5H6zM8,4H9V5H8zM10,4H11V5H10zM11,4H12V5H11zM18,4H19V5H18zM20,4H21V5H20zM22,4H23V5H22zM23,4H24V5H23zM24,4H25V5H24zM26,4H27V5H26zM28,4H29V5H28zM30,4H31V5H30zM31,4H32V5H31zM32,4H33V5H32zM34,4H35V5H34zM2,5H3V6H2zM4,5H5V6H4zM5,5H6V6H5zM6,5H7V6H6zM8,5H9V6H8zM10,5H11V6H10zM11,5H12V6H11zM12,5H13V6H12zM15,5H16V6H15zM18,5H19V6H18zM19,5H20V6H19zM23,5H24V6H23zM24,5H25V6H24zM28,5H29V6H28zM30,5H31V6H30zM31,5H32V6H31zM32,5H33V6H32zM34,5H35V6H34zM2,6H3V7H2zM4,6H5V7H4zM5,6H6V7H5zM6,6H7V7H6zM8,6H9V7H8zM11,6H12V7H11zM18,6H19V7H18zM20,6H21V7H20zM21,6H22V7H21zM22,6H23V7H22zM23,6H24V7H23zM25,6H26V7H25zM28,6H29V7H28zM30,6H31V7H30zM31,6H32V7H31zM32,6H33V7H32zM34,6H35V7H34zM2,7H3V8H2zM8,7H9V8H8zM11,7H12V8H11zM12,7H13V8H12zM13,7H14V8H13zM16,7H17V8H16zM18,7H19V8H18zM19,7H20V8H19zM20,7H21V8H20zM26,7H27V8H26zM28,7H29V8H28zM34,7H35V8H34zM2,8H3V9H2zM3,8H4V9H3zM4,8H5V9H4zM5,8H6V9H5zM6,8H7V9H6zM7,8H8V9H7zM8,8H9V9H8zM10,8H11V9H10zM12,8H13V9H12zM14,8H15V9H14zM16,8H17V9H16zM18,8H19V9H18zM20,8H21V9H20zM22,8H23V9H22zM24,8H25V9H24zM26,8H27V9H26zM28,8H29V9H28zM29,8H30V9H29zM30,8H31V9H30zM31,8H32V9H31zM32,8H33V9H32zM33,8H34V9H33zM34,8H35V9H34zM10,9H11V10H10zM11,9H12V10H11zM12,9H13V10H12zM13,9H14V10H13zM16,9H17V10H16zM20,9H21V10H20zM26,9H27V10H26zM2,10H3V11H2zM8,10H9V11H8zM10,10H11V11H10zM13,10H14V11H13zM15,10H16V11H15zM19,10H20V11H19zM20,10H21V11H20zM21,10H22V11H21zM22,10H23V11H22zM25,10H26V11H25zM27,10H28V11H27zM28,10H29V11H28zM31,10H32V11H31zM32,10H33V11H32zM33,10H34V11H33zM2,11H3V12H2zM5,11H6V12H5zM6,11H7V12H6zM9,11H10V12H9zM11,11H12V12H11zM16,11H17V12H16zM17,11H18V12H17zM19,11H20V12H19zM20,11H21V12H20zM21,11H22V12H21zM23,11H24V12H23zM25,11H26V12H25zM26,11H27V12H26zM30,11H31V12H30zM31,11H32V12H31zM32,11H33V12H32zM33,11H34V12H33zM4,12H5V13H4zM5,12H6V13H5zM6,12H7V13H6zM8,12H9V13H8zM9,12H10V13H9zM10,12H11V13H10zM11,12H12V13H11zM12,12H13V13H12zM16,12H17V13H16zM17,12H18V13H17zM18,12H19V13H18zM24,12H25V13H24zM27,12H28V13H27zM28,12H29V13H28zM30,12H31V13H30zM32,12H33V13H32zM33,12H34V13H33zM7,13H8V14H7zM11,13H12V14H11zM14,13H15V14H14zM16,13H17V14H16zM24,13H25V14H24zM26,13H27V14H26zM29,13H30V14H29zM30,13H31V14H30zM31,13H32V14H31zM32,13H33V14H32zM2,14H3V15H2zM3,14H4V15H3zM4,14H5V15H4zM7,14H8V15H7zM8,14H9V15H8zM9,14H10V15H9zM12,14H13V15H12zM13,14H14V15H13zM14,14H15V15H14zM15,14H16V15H15zM16,14H17V15H16zM18,14H19V15H18zM22,14H23V15H22zM25,14H26V15H25zM26,14H27V15H26zM28,14H29V15H28zM29,14H30V15H29zM34,14H35V15H34zM6,15H7V16H6zM7,15H8V16H7zM9,15H10V16H9zM10,15H11V16H10zM11,15H12V16H11zM13,15H14V16H13zM15,15H16V16H15zM17,15H18V16H17zM18,15H19V16H18zM19,15H20V16H19zM20,15H21V16H20zM21,15H22V16H21zM22,15H23V16H22zM24,15H25V16H24zM25,15H26V16H25zM28,15H29V16H28zM29,15H30V16H29zM31,15H32V16H31zM32,15H33V16H32zM33,15H34V16H33zM34,15H35V16H34zM2,16H3V17H2zM3,16H4V17H3zM5,16H6V17H5zM8,16H9V17H8zM9,16H10V17H9zM11,16H12V17H11zM13,16H14V17H13zM15,16H16V17H15zM16,16H17V17H16zM17,16H18V17H17zM19,16H20V17H19zM23,16H24V17H23zM24,16H25V17H24zM26,16H27V17H26zM27,16H28V17H27zM28,16H29V17H28zM31,16H32V17H31zM32,16H33V17H32zM33,16H34V17H33zM2,17H3V18H2zM6,17H7V18H6zM9,17H10V18H9zM12,17H13V18H12zM14,17H15V18H14zM15,17H16V18H15zM16,17H17V18H16zM20,17H21V18H20zM21,17H22V18H21zM26,17H27V18H26zM27,17H28V18H27zM32,17H33V18H32zM34,17H35V18H34zM3,18H4V19H3zM7,18H8V19H7zM8,18H9V19H8zM9,18H10V19H9zM10,18H11V19H10zM11,18H12V19H11zM12,18H13V19H12zM13,18H14V19H13zM16,18H17V19H16zM19,18H20V19H19zM21,18H22V19H21zM27,18H28V19H27zM29,18H30V19H29zM30,18H31V19H30zM34,18H35V19H34zM3,19H4V20H3zM4,19H5V20H4zM6,19H7V20H6zM11,19H12V20H11zM13,19H14V20H13zM14,19H15V20H14zM16,19H17V20H16zM17,19H18V20H17zM18,19H19V20H18zM19,19H20V20H19zM20,19H21V20H20zM21,19H22V20H21zM22,19H23V20H22zM25,19H26V20H25zM26,19H27V20H26zM28,19H29V20H28zM31,19H32V20H31zM32,19H33V20H32zM34,19H35V20H34zM2,20H3V21H2zM5,20H6V21H5zM7,20H8V21H7zM8,20H9V21H8zM11,20H12V21H11zM12,20H13V21H12zM15,20H16V21H15zM16,20H17V21H16zM17,20H18V21H17zM18,20H19V21H18zM19,20H20V21H19zM21,20H22V21H21zM22,20H23V21H22zM25,20H26V21H25zM29,20H30V21H29zM31,20H32V21H31zM32,20H33V21H32zM34,20H35V21H34zM6,21H7V22H6zM9,21H10V22H9zM10,21H11V22H10zM11,21H12V22H11zM13,21H14V22H13zM14,21H15V22H14zM15,21H16V22H15zM18,21H19V22H18zM20,21H21V22H20zM22,21H23V22H22zM27,21H28V22H27zM28,21H29V22H28zM30,21H31V22H30zM31,21H32V22H31zM32,21H33V22H32zM33,21H34V22H33zM4,22H5V23H4zM8,22H9V23H8zM10,22H11V23H10zM12,22H13V23H12zM15,22H16V23H15zM19,22H20V23H19zM20,22H21V23H20zM24,22H25V23H24zM25,22H26V23H25zM27,22H28V23H27zM29,22H30V23H29zM30,22H31V23H30zM31,22H32V23H31zM33,22H34V23H33zM2,23H3V24H2zM4,23H5V24H4zM9,23H10V24H9zM11,23H12V24H11zM15,23H16V24H15zM17,23H18V24H17zM19,23H20V24H19zM21,23H22V24H21zM22,23H23V24H22zM23,23H24V24H23zM24,23H25V24H24zM25,23H26V24H25zM27,23H28V24H27zM29,23H30V24H29zM30,23H31V24H30zM31,23H32V24H31zM2,24H3V25H2zM5,24H6V25H5zM6,24H7V25H6zM8,24H9V25H8zM12,24H13V25H12zM15,24H16V25H15zM17,24H18V25H17zM18,24H19V25H18zM20,24H21V25H20zM22,24H23V25H22zM24,24H25V25H24zM28,24H29V25H28zM29,24H30V25H29zM31,24H32V25H31zM32,24H33V25H32zM33,24H34V25H33zM2,25H3V26H2zM4,25H5V26H4zM6,25H7V26H6zM13,25H14V26H13zM16,25H17V26H16zM18,25H19V26H18zM22,25H23V26H22zM25,25H26V26H25zM28,25H29V26H28zM30,25H31V26H30zM31,25H32V26H31zM32,25H33V26H32zM34,25H35V26H34zM2,26H3V27H2zM3,26H4V27H3zM5,26H6V27H5zM6,26H7V27H6zM7,26H8V27H7zM8,26H9V27H8zM10,26H11V27H10zM11,26H12V27H11zM18,26H19V27H18zM21,26H22V27H21zM26,26H27V27H26zM27,26H28V27H27zM28,26H29V27H28zM29,26H30V27H29zM30,26H31V27H30zM10,27H11V28H10zM11,27H12V28H11zM12,27H13V28H12zM13,27H14V28H13zM15,27H16V28H15zM17,27H18V28H17zM18,27H19V28H18zM19,27H20V28H19zM20,27H21V28H20zM21,27H22V28H21zM22,27H23V28H22zM23,27H24V28H23zM26,27H27V28H26zM30,27H31V28H30zM32,27H33V28H32zM34,27H35V28H34zM2,28H3V29H2zM3,28H4V29H3zM4,28H5V29H4zM5,28H6V29H5zM6,28H7V29H6zM7,28H8V29H7zM8,28H9V29H8zM13,28H14V29H13zM15,28H16V29H15zM17,28H18V29H17zM18,28H19V29H18zM19,28H20V29H19zM22,28H23V29H22zM24,28H25V29H24zM25,28H26V29H25zM26,28H27V29H26zM28,28H29V29H28zM30,28H31V29H30zM32,28H33V29H32zM33,28H34V29H33zM2,29H3V30H2zM8,29H9V30H8zM15,29H16V30H15zM17,29H18V30H17zM22,29H23V30H22zM26,29H27V30H26zM30,29H31V30H30zM31,29H32V30H31zM32,29H33V30H32zM33,29H34V30H33zM34,29H35V30H34zM2,30H3V31H2zM4,30H5V31H4zM5,30H6V31H5zM6,30H7V31H6zM8,30H9V31H8zM12,30H13V31H12zM14,30H15V31H14zM16,30H17V31H16zM18,30H19V31H18zM19,30H20V31H19zM21,30H22V31H21zM24,30H25V31H24zM26,30H27V31H26zM27,30H28V31H27zM28,30H29V31H28zM29,30H30V31H29zM30,30H31V31H30zM31,30H32V31H31zM33,30H34V31H33zM34,30H35V31H34zM2,31H3V32H2zM4,31H5V32H4zM5,31H6V32H5zM6,31H7V32H6zM8,31H9V32H8zM11,31H12V32H11zM12,31H13V32H12zM13,31H14V32H13zM14,31H15V32H14zM15,31H16V32H15zM16,31H17V32H16zM17,31H18V32H17zM19,31H20V32H19zM21,31H22V32H21zM22,31H23V32H22zM24,31H25V32H24zM25,31H26V32H25zM27,31H28V32H27zM29,31H30V32H29zM30,31H31V32H30zM32,31H33V32H32zM33,31H34V32H33zM34,31H35V32H34zM2,32H3V33H2zM4,32H5V33H4zM5,32H6V33H5zM6,32H7V33H6zM8,32H9V33H8zM13,32H14V33H13zM15,32H16V33H15zM16,32H17V33H16zM17,32H18V33H17zM18,32H19V33H18zM21,32H22V33H21zM22,32H23V33H22zM25,32H26V33H25zM26,32H27V33H26zM29,32H30V33H29zM30,32H31V33H30zM31,32H32V33H31zM32,32H33V33H32zM33,32H34V33H33zM34,32H35V33H34zM2,33H3V34H2zM8,33H9V34H8zM11,33H12V34H11zM12,33H13V34H12zM15,33H16V34H15zM16,33H17V34H16zM22,33H23V34H22zM24,33H25V34H24zM29,33H30V34H29zM30,33H31V34H30zM31,33H32V34H31zM32,33H33V34H32zM2,34H3V35H2zM3,34H4V35H3zM4,34H5V35H4zM5,34H6V35H5zM6,34H7V35H6zM7,34H8V35H7zM8,34H9V35H8zM10,34H11V35H10zM13,34H14V35H13zM14,34H15V35H14zM15,34H16V35H15zM16,34H17V35H16zM17,34H18V35H17zM19,34H20V35H19zM20,34H21V35H20zM24,34H25V35H24zM25,34H26V35H25zM26,34H27V35H26zM27,34H28V35H27zM28,34H29V35H28zM29,34H30V35H29zM33,34H34V35H33z" id="qr-path" fill="#000000" fill-opacity="1" fill-rule="nonzero" stroke="none"/></svg>